<?xml version="1.0" encoding="UTF-8"?>
<svg id="Layer_1" xmlns="http://www.w3.org/2000/svg" xmlns:xlink="http://www.w3.org/1999/xlink" viewBox="0 0 250 250">
  <defs>
    <style>
      .cls-1 {
        fill: url(#linear-gradient-2);
      }

      .cls-2 {
        fill: #333;
        opacity: 0;
      }

      .cls-3 {
        fill: url(#linear-gradient-3);
      }

      .cls-4 {
        fill: none;
        stroke: #fff;
        stroke-miterlimit: 10;
        stroke-width: 3px;
      }

      .cls-5 {
        fill: url(#linear-gradient);
      }
    </style>
    <linearGradient id="linear-gradient" x1="94.27" y1="144.94" x2="150.46" y2="201.12" gradientUnits="userSpaceOnUse">
      <stop offset="0" stop-color="#d7157a"/>
      <stop offset=".49" stop-color="#ac1f7c"/>
      <stop offset="1" stop-color="#852a7e"/>
    </linearGradient>
    <linearGradient id="linear-gradient-2" x1="100.61" y1="137.05" x2="143.72" y2="180.16" gradientUnits="userSpaceOnUse">
      <stop offset="0" stop-color="#d84484"/>
      <stop offset="1" stop-color="#9a277d"/>
    </linearGradient>
    <linearGradient id="linear-gradient-3" x1="136.48" y1="92.27" x2="138.27" y2="150.61" gradientTransform="translate(-10.49 20.18) rotate(-7.68)" gradientUnits="userSpaceOnUse">
      <stop offset="0" stop-color="#008d82"/>
      <stop offset=".14" stop-color="#127b71"/>
      <stop offset=".46" stop-color="#385950"/>
      <stop offset=".63" stop-color="#474c44"/>
      <stop offset="1" stop-color="#000" stop-opacity="0"/>
    </linearGradient>
  </defs>
  <rect class="cls-2" width="250" height="250"/>
  <path class="cls-4" d="M166.44,187.48v-45.11c0-1.79-.95-3.44-2.5-4.33l-39.07-22.56c-1.55-.89-3.45-.89-5,0l-39.07,22.56c-1.55.89-2.5,2.54-2.5,4.33v45.11c0,1.79.95,3.44,2.5,4.33l39.07,22.56c1.55.89,3.45.89,5,0l39.07-22.56c1.55-.89,2.5-2.54,2.5-4.33Z"/>
  <path class="cls-5" d="M163.38,187.16v-28.27c0-.89-.48-1.72-1.25-2.17l-38.52-22.24c-.77-.45-1.73-.45-2.5,0l-38.52,22.24c-.77.45-1.25,1.27-1.25,2.17v28.27c0,.89.48,1.72,1.25,2.17l38.52,22.24c.77.45,1.73.45,2.5,0l38.52-22.24c.77-.45,1.25-1.27,1.25-2.17Z"/>
  <path class="cls-1" d="M163.38,158.43v.36c0-1.79-.95-3.44-2.5-4.33l-37.27-21.51c-.77-.45-1.73-.45-2.5,0l-38.52,22.24c-.77.45-1.25,1.27-1.25,2.17v2.53c0,.89.48,1.72,1.25,2.17l38.52,22.24c.77.45,1.73.45,2.5,0l37.27-21.51c1.55-.89,2.5-2.54,2.5-4.33Z"/>
  <path class="cls-4" d="M141.59,136.05c1.65-.96,1.67-3.34.02-4.32l-17.98-10.64c-.79-.46-1.76-.46-2.55,0l-17.98,10.64c-1.64.97-1.63,3.36.02,4.32"/>
  <path class="cls-3" d="M109.3,154.32c-.86,2.09.14,4.47,2.23,5.33s4.47-.14,5.33-2.23l13.48-32.84c9.81-2.84,31.43-10.84,38.35-27.68,9.04-22.02-5.13-63.98-5.13-63.98,0,0-39.57,19.9-48.61,41.92-4.99,12.16-1.28,26.44,3.05,36.8l14.49-36.48c.86-2.09,3.24-3.08,5.33-2.23s3.08,3.24,2.23,5.33"/>
  <path class="cls-4" d="M141.62,131.73c1.64.97,1.63,3.36-.02,4.32l-17.98,10.41c-.77.45-1.73.45-2.51,0l-17.98-10.41c-1.65-.96-1.67-3.34-.02-4.32"/>
</svg>